<?xml version="1.0" standalone="no"?>
<!DOCTYPE svg PUBLIC "-//W3C//DTD SVG 20010904//EN"
 "http://www.w3.org/TR/2001/REC-SVG-20010904/DTD/svg10.dtd">
<svg version="1.0" xmlns="http://www.w3.org/2000/svg"
 width="1028.000000pt" height="1028.000000pt" viewBox="0 0 1028.000000 1028.000000"
 preserveAspectRatio="xMidYMid meet">
<metadata>
Created by potrace 1.11, written by Peter Selinger 2001-2013
</metadata>
<g transform="translate(0.000000,1028.000000) scale(0.100000,-0.100000)"
fill="#000000" stroke="none">
<path d="M2277 10274 c-1 -1 -50 -4 -109 -8 -59 -3 -113 -8 -120 -11 -7 -2
-36 -6 -63 -9 -183 -20 -487 -100 -630 -166 -55 -25 -105 -64 -148 -116 -17
-20 -17 -23 0 -62 17 -38 28 -46 163 -115 80 -41 287 -146 460 -235 704 -359
682 -347 699 -383 44 -91 81 -181 81 -196 0 -13 -423 -878 -436 -893 -3 -2
-62 -4 -132 -5 -130 -1 -151 4 -232 55 -8 5 -44 26 -80 46 -36 20 -92 53 -125
72 -33 19 -89 50 -125 70 -36 19 -85 46 -110 60 -273 152 -757 392 -789 392
-11 0 -18 -28 -26 -105 -4 -33 -8 -71 -11 -85 -10 -63 185 -588 258 -692 11
-16 17 -28 14 -28 -7 0 83 -154 150 -256 150 -229 330 -432 519 -589 39 -32
71 -62 73 -66 4 -9 -9 -38 -113 -254 -95 -197 -136 -287 -133 -290 2 -1 67
-25 145 -54 l142 -53 44 -81 c47 -87 37 -79 242 -192 39 -21 78 -43 88 -49 15
-9 23 -6 42 17 l24 27 73 -19 73 -19 17 21 c10 12 28 41 40 65 13 23 29 42 36
42 29 0 422 -138 527 -185 27 -12 79 -35 115 -51 471 -205 1006 -554 1350
-881 41 -39 85 -80 97 -91 13 -10 64 -57 115 -104 51 -46 122 -111 158 -143
36 -32 67 -61 70 -64 3 -3 52 -49 110 -101 58 -52 130 -118 160 -146 60 -57
78 -72 194 -177 44 -40 96 -88 117 -107 20 -19 75 -69 121 -110 80 -72 136
-123 243 -222 28 -26 60 -55 73 -66 13 -11 63 -57 112 -102 49 -45 97 -89 108
-98 18 -16 152 -138 297 -272 102 -94 263 -241 314 -286 24 -21 58 -52 76 -69
32 -31 191 -176 280 -255 27 -25 52 -47 55 -50 3 -4 34 -33 70 -65 36 -33 113
-103 170 -155 57 -52 134 -122 170 -155 100 -92 143 -132 166 -152 12 -10 63
-56 114 -103 51 -47 102 -93 114 -103 12 -10 46 -42 76 -70 30 -29 98 -90 150
-137 52 -47 100 -90 105 -96 6 -6 39 -37 75 -69 54 -49 165 -149 289 -264 14
-12 66 -60 115 -105 49 -44 98 -89 110 -99 11 -10 59 -54 106 -97 47 -43 97
-88 110 -100 14 -12 48 -43 75 -68 28 -26 97 -90 155 -142 57 -52 111 -102
120 -110 9 -8 58 -53 110 -100 87 -79 166 -151 230 -210 54 -50 106 -95 122
-108 15 -12 16 68 17 1062 2 921 0 1076 -12 1083 -19 10 -61 45 -277 223 -96
80 -220 182 -275 225 -55 44 -105 85 -111 90 -6 6 -26 21 -44 35 -18 14 -47
37 -64 51 -17 15 -238 199 -492 410 -562 468 -552 460 -578 482 -11 11 -41 35
-65 55 -60 50 -115 96 -121 102 -3 3 -86 72 -185 155 -99 82 -182 152 -185
155 -3 3 -32 28 -65 55 -33 28 -62 52 -65 55 -3 3 -45 39 -95 80 -49 41 -92
77 -95 80 -3 3 -34 30 -70 60 -36 30 -67 57 -70 60 -7 8 -380 324 -459 389
-36 30 -68 57 -71 61 -3 3 -32 28 -65 55 -33 28 -62 53 -65 56 -3 3 -158 135
-345 293 -187 159 -356 302 -376 320 -20 17 -56 47 -80 68 -24 20 -55 46 -69
58 -14 12 -45 38 -69 58 -24 21 -49 42 -55 47 -6 6 -72 62 -146 125 -74 63
-153 130 -176 149 -22 20 -67 58 -100 86 -98 82 -247 236 -289 300 -38 58 -86
151 -158 305 -30 65 -85 254 -101 345 -7 42 -15 86 -21 111 -3 12 -7 39 -10
60 -3 21 -10 62 -15 89 -9 46 -21 139 -35 260 -3 28 -7 82 -10 120 -4 73 -11
159 -20 260 -3 33 -8 80 -10 105 -21 235 -23 257 -31 320 -3 30 -7 71 -9 90
-3 44 -15 165 -20 205 -2 17 -7 57 -10 90 -11 94 -53 407 -59 433 -7 31 -77
158 -135 247 -66 101 -199 230 -316 307 -122 81 -316 183 -381 203 -161 46
-260 68 -469 100 -62 10 -410 26 -418 19z"/>
</g>
</svg>
