<?xml version="1.0" encoding="iso-8859-1"?>
<!-- Generator: Adobe Illustrator 19.0.0, SVG Export Plug-In . SVG Version: 6.00 Build 0)  -->
<svg version="1.1" id="Capa_1" xmlns="http://www.w3.org/2000/svg" xmlns:xlink="http://www.w3.org/1999/xlink" x="0px" y="0px"
	 viewBox="0 0 480 480" style="enable-background:new 0 0 480 480;" xml:space="preserve">
<g>
	<g>
		<path d="M304,256h-16v-22.6c20.143-9.218,34.562-27.634,38.68-49.4H328c17.673-0.138,31.887-14.577,31.748-32.25
			c-0.119-15.202-10.918-28.222-25.836-31.15c6.307-4.487,10.063-11.74,10.088-19.48V72c-0.044-39.746-32.254-71.956-72-72h-64
			c-39.72-0.044-71.956,32.12-72,71.84c0,0.053,0,0.107,0,0.16v29.12c0.025,7.74,3.781,14.993,10.088,19.48
			c-17.342,3.404-28.642,20.221-25.238,37.564c2.928,14.918,15.948,25.717,31.15,25.836h1.32
			c4.092,21.781,18.519,40.213,38.68,49.416V256h-16c-66.243,0.075-119.925,53.757-120,120v96c0,4.418,3.582,8,8,8h352
			c4.418,0,8-3.582,8-8v-96C423.925,309.757,370.243,256.075,304,256z M344,152c0,8.837-7.163,16-16,16v-32
			C336.837,136,344,143.163,344,152z M327.2,62.4l-16.304-2.72c-2.788-16.012-10.921-30.606-23.072-41.4
			C308.258,24.324,323.509,41.413,327.2,62.4z M248,16.64c21.883,3.194,39.846,18.951,45.864,40.232L248,49.264V16.64z M232,16.64
			v32.584l-45.864,7.648C192.154,35.591,210.117,19.834,232,16.64z M168.352,32.4c6.657-6.633,14.87-11.493,23.888-14.136
			c-12.175,10.797-20.324,25.408-23.112,41.44L152.8,62.4C154.771,51.037,160.203,40.56,168.352,32.4z M152,168
			c-8.837,0-16-7.163-16-16s7.163-16,16-16V168z M152.095,102.32c-0.062-0.397-0.094-0.798-0.095-1.2V78.784L236,64.8
			c2.649-0.437,5.351-0.437,8,0l84,13.976v22.344c0,4.418-3.582,8-8,8c-0.446-0.003-0.89-0.046-1.328-0.128l-72.136-12
			c-2.161-0.348-4.347-0.525-6.536-0.528c-2.213,0.001-4.423,0.177-6.608,0.528l-72.16,12
			C156.866,109.672,152.776,106.685,152.095,102.32z M168,171.28v-47.2l68-11.28c2.649-0.433,5.351-0.433,8,0l68,11.304v47.2
			c-0.034,22.24-14.05,42.056-35.008,49.496c-2.165,0.865-4.403,1.531-6.688,1.992c-3.622,0.79-7.317,1.195-11.024,1.208h-38.56
			c-3.733-0.004-7.455-0.403-11.104-1.192c-2.369-0.487-4.688-1.192-6.928-2.104C181.855,213.199,167.976,193.424,168,171.28z
			 M272,238.808V280c0,13.255-10.745,24-24,24h-16c-13.255,0-24-10.745-24-24v-41.192c1.208,0.224,2.4,0.352,3.648,0.512
			c0.744,0.104,1.472,0.24,2.216,0.312c2.278,0.239,4.566,0.361,6.856,0.368h38.56c2.288,0,4.568-0.136,6.84-0.36
			c0.8-0.08,1.52-0.224,2.288-0.328C269.608,239.152,270.808,239.032,272,238.808z M408,464h-64V360c0-4.418-3.582-8-8-8
			s-8,3.582-8,8v104H152V360c0-4.418-3.582-8-8-8s-8,3.582-8,8v104H72v-88c0.066-57.41,46.59-103.934,104-104h16v8
			c0.026,22.08,17.92,39.974,40,40h16c22.08-0.026,39.974-17.92,40-40v-8h16c57.41,0.066,103.934,46.59,104,104V464z"/>
	</g>
</g>
<g>
</g>
<g>
</g>
<g>
</g>
<g>
</g>
<g>
</g>
<g>
</g>
<g>
</g>
<g>
</g>
<g>
</g>
<g>
</g>
<g>
</g>
<g>
</g>
<g>
</g>
<g>
</g>
<g>
</g>
</svg>
