<?xml version="1.0" encoding="iso-8859-1"?>
<!-- Generator: Adobe Illustrator 19.0.0, SVG Export Plug-In . SVG Version: 6.00 Build 0)  -->
<svg version="1.1" id="Capa_1" xmlns="http://www.w3.org/2000/svg" xmlns:xlink="http://www.w3.org/1999/xlink" x="0px" y="0px"
	 viewBox="0 0 480 480" style="enable-background:new 0 0 480 480;" xml:space="preserve">
<g>
	<g>
		<path d="M382.528,243.993c-4.335-12.442-17.935-19.014-30.376-14.68c-6.877,2.396-12.284,7.802-14.68,14.68H312v-25.472
			c12.473-4.393,19.023-18.066,14.629-30.539c-3.38-9.596-12.455-16.009-22.629-15.989h-32v-16h16c4.418,0,8-3.582,8-8v-24h48
			c13.255,0,24-10.745,24-24s-10.745-24-24-24H136c-13.255,0-24,10.745-24,24s10.745,24,24,24h48v24c0,4.418,3.582,8,8,8h16v16h-32
			c-13.224,0.074-23.926,10.776-24,24c0.042,10.134,6.445,19.15,16,22.528v25.472h-25.472c-3.378-9.555-12.394-15.958-22.528-16
			c-10.14,0.035-19.164,6.44-22.544,16H0v144h97.472c4.335,12.442,17.935,19.014,30.376,14.68c6.877-2.396,12.284-7.802,14.68-14.68
			h194.944c3.378,9.555,12.394,15.958,22.528,16c10.14-0.035,19.164-6.44,22.544-16H480v-144H382.528z M96,371.993H16v-112h80
			V371.993z M128,379.993c0,4.418-3.582,8-8,8s-8-3.582-8-8v-128c-0.004-2.157,0.885-4.219,2.456-5.696
			c1.455-1.495,3.458-2.327,5.544-2.304c4.418,0,8,3.582,8,8V379.993z M136,107.993c-4.418,0-8-3.582-8-8s3.582-8,8-8h208
			c4.418,0,8,3.582,8,8s-3.582,8-8,8H136z M200,139.993v-16h80v16H200z M256,155.993v16h-32v-16H256z M170.456,190.297
			c1.455-1.495,3.458-2.328,5.544-2.304h128c4.418,0,8,3.582,8,8s-3.582,8-8,8H176c-4.418,0-8-3.582-8-8
			C167.996,193.836,168.885,191.774,170.456,190.297z M336,371.993H144v-112h32c4.418,0,8-3.582,8-8v-32h112v32c0,4.418,3.582,8,8,8
			h32V371.993z M368,379.993c0.003,2.155-0.882,4.215-2.448,5.696c-1.459,1.493-3.465,2.325-5.552,2.304c-4.418,0-8-3.582-8-8v-128
			c0-4.418,3.582-8,8-8s8,3.582,8,8V379.993z M464,371.993h-80v-112h80V371.993z"/>
	</g>
</g>
<g>
</g>
<g>
</g>
<g>
</g>
<g>
</g>
<g>
</g>
<g>
</g>
<g>
</g>
<g>
</g>
<g>
</g>
<g>
</g>
<g>
</g>
<g>
</g>
<g>
</g>
<g>
</g>
<g>
</g>
</svg>
